 <svg xmlns="http://www.w3.org/2000/svg" viewBox="0 0 512 512" width="512" height="512">
   <defs>
     <radialGradient id="bg" cx="50%" cy="50%" r="50%">
       <stop offset="0%" stop-color="#9B59D6"/>
       <stop offset="100%" stop-color="#7B2FBE"/>
     </radialGradient>
   </defs>
   <rect width="512" height="512" rx="80" fill="url(#bg)"/>
   <path d="M256,90 C256,90 170,250 170,316 C170,370 208.5,410 256,410 C303.5,410 342,370 342,316 C342,250 256,90 256,90 Z" fill="rgba(255,255,255,0.9)"/>
   <path d="M215,220 C215,220 192,275 192,308 C192,332 210,350 230,350 C247,350 255,338 255,308 C255,275 215,220 215,220 Z" fill="rgba(255,255,255,0.2)"/>
   <circle cx="256" cy="370" r="8" fill="rgba(255,255,255,0.3)"/>
 </svg>
